<svg id="Layer_8" data-name="Layer 8" xmlns="http://www.w3.org/2000/svg" viewBox="0 0 475 475"><defs><style>.cls-1{fill:#ffb300;}</style></defs><title>Buybackers_logo_only</title><rect width="475" height="475"/><path class="cls-1" d="M237.5,3.62C108.35,3.62,3.62,108.35,3.62,237.5S108.35,471.38,237.5,471.38,471.38,366.65,471.38,237.5,366.61,3.62,237.5,3.62Zm5.21,378.83c-59.34,0-107.59-48.37-107.59-107.67V99.53a20.87,20.87,0,0,1,41.74,0V274.78a65.88,65.88,0,1,0,86-62.79l2.9,12.78-71.57-22,54.81-51,3.69,15.93A107.61,107.61,0,0,1,242.71,382.45Z"/><path d="M350.34,274.78A107.79,107.79,0,0,1,242.71,382.45c-59.34,0-107.59-48.37-107.59-107.67V99.53a20.87,20.87,0,0,1,41.74,0V274.78a65.88,65.88,0,1,0,86-62.79l2.9,12.78-71.57-22,54.81-51,3.69,15.93A107.11,107.11,0,0,1,350.34,274.78Z"/></svg>