<?xml version="1.0" standalone="no"?>
<!DOCTYPE svg PUBLIC "-//W3C//DTD SVG 20010904//EN"
 "http://www.w3.org/TR/2001/REC-SVG-20010904/DTD/svg10.dtd">
<svg version="1.0" xmlns="http://www.w3.org/2000/svg"
 width="475.000000pt" height="475.000000pt" viewBox="0 0 475.000000 475.000000"
 preserveAspectRatio="xMidYMid meet">
<metadata>
Created by potrace 1.11, written by Peter Selinger 2001-2013
</metadata>
<g transform="translate(0.000000,475.000000) scale(0.100000,-0.100000)"
fill="#000000" stroke="none">
<path d="M2209 4706 c-2 -2 -37 -7 -77 -10 -40 -4 -78 -9 -85 -11 -7 -2 -30
-6 -52 -9 -105 -13 -314 -70 -445 -121 -682 -266 -1192 -816 -1403 -1515 -19
-63 -37 -128 -40 -145 -3 -16 -8 -41 -11 -55 -3 -14 -8 -38 -11 -55 -6 -29 -8
-44 -25 -175 -9 -71 -6 -471 5 -535 6 -36 29 -163 41 -225 10 -48 43 -165 67
-235 142 -413 410 -797 736 -1056 42 -33 84 -67 94 -75 34 -28 193 -129 247
-158 30 -16 69 -37 85 -46 159 -87 475 -191 655 -216 19 -3 60 -10 90 -15 117
-22 491 -19 645 5 89 14 114 19 212 42 187 44 348 104 531 199 435 226 781
574 1001 1008 64 126 116 243 110 249 -1 2 3 13 10 26 14 27 69 203 77 246 2
17 7 39 10 48 8 26 14 59 20 113 4 28 8 53 10 56 17 30 26 467 11 579 -5 30
-10 73 -13 95 -3 22 -7 47 -9 55 -2 8 -7 31 -10 50 -9 57 -34 159 -61 245 -28
90 -35 109 -105 275 -44 103 -183 341 -246 420 -121 153 -145 180 -224 259
-153 152 -344 298 -509 389 -270 150 -522 233 -865 287 -43 7 -460 16 -466 11z"/>
</g>
</svg>
