<?xml version="1.0" standalone="no"?>
<!DOCTYPE svg PUBLIC "-//W3C//DTD SVG 20010904//EN"
 "http://www.w3.org/TR/2001/REC-SVG-20010904/DTD/svg10.dtd">
<svg version="1.0" xmlns="http://www.w3.org/2000/svg"
 width="1376.000000pt" height="1376.000000pt" viewBox="0 0 1376.000000 1376.000000"
 preserveAspectRatio="xMidYMid meet">
<metadata>
Created by potrace 1.11, written by Peter Selinger 2001-2013
</metadata>
<g transform="translate(0.000000,1376.000000) scale(0.100000,-0.100000)"
fill="#000000" stroke="none">
<path d="M9008 10804 c-2 -1 -21 -5 -43 -8 -69 -10 -96 -17 -144 -38 -87 -37
-171 -82 -171 -92 0 -5 -3 -7 -6 -3 -3 3 -11 2 -18 -3 -6 -6 -54 -43 -106 -84
-96 -75 -231 -209 -305 -301 -22 -27 -48 -57 -57 -66 -10 -9 -18 -21 -18 -27
0 -6 -3 -12 -8 -14 -18 -8 -225 -305 -249 -358 -4 -8 -9 -17 -13 -20 -11 -8
-120 -198 -120 -208 0 -5 -7 -15 -15 -22 -8 -7 -13 -16 -10 -20 3 -5 1 -10 -3
-12 -16 -6 -132 -253 -208 -443 -25 -60 -49 -119 -53 -130 -5 -11 -21 -54 -36
-95 -14 -41 -30 -84 -35 -95 -4 -11 -18 -49 -30 -85 -12 -36 -26 -74 -31 -85
-4 -11 -24 -67 -44 -125 -19 -58 -38 -112 -42 -120 -8 -20 -6 -14 -53 -185
-50 -181 -50 -182 -57 -220 -2 -16 -10 -36 -15 -42 -6 -7 -8 -13 -5 -13 3 0 1
-15 -4 -32 -6 -18 -12 -40 -14 -49 -2 -8 -10 -44 -19 -80 -9 -35 -18 -74 -21
-86 -3 -13 -7 -33 -11 -45 -7 -30 -15 -68 -19 -93 -2 -11 -11 -49 -19 -85 -8
-36 -17 -85 -20 -110 -3 -25 -8 -56 -11 -70 -4 -24 -8 -60 -21 -180 -3 -30 -7
-151 -8 -268 l-1 -212 -96 -63 c-105 -68 -129 -83 -174 -106 -16 -9 -32 -19
-35 -22 -10 -12 -295 -149 -311 -149 -8 0 -19 -4 -25 -8 -5 -5 -38 -19 -74
-31 -36 -13 -72 -26 -80 -29 -29 -10 -79 -22 -115 -27 -11 -2 -20 -4 -20 -5 0
-7 -69 -13 -165 -14 -94 0 -122 3 -155 19 -51 24 -141 117 -157 161 -6 19 -15
34 -19 34 -4 0 -9 6 -12 14 -5 12 47 37 108 51 39 9 71 19 80 25 6 4 28 13 50
20 22 7 51 20 65 29 13 9 26 15 27 13 4 -4 156 67 163 76 3 4 25 18 50 31 25
14 51 31 58 38 7 7 20 13 28 13 8 0 14 4 14 8 0 5 16 17 35 28 19 10 35 22 35
26 0 5 4 8 9 8 32 0 270 243 351 358 143 204 196 321 216 482 11 89 3 204 -19
260 -3 8 -11 32 -17 52 -23 74 -110 189 -198 260 -35 28 -184 95 -237 107
-158 34 -292 32 -454 -10 -64 -16 -211 -81 -276 -122 -104 -64 -268 -218 -340
-317 -21 -30 -42 -57 -45 -60 -4 -3 -28 -41 -54 -85 -26 -44 -52 -87 -57 -95
-23 -37 -100 -205 -142 -310 -25 -63 -51 -128 -58 -145 -7 -16 -13 -32 -14
-35 0 -3 -13 -43 -28 -90 -33 -107 -54 -197 -63 -280 -7 -69 -7 -252 1 -310 9
-74 17 -117 32 -175 8 -33 16 -65 17 -72 1 -7 5 -16 9 -19 4 -4 7 -13 7 -20 0
-22 61 -147 107 -217 47 -72 172 -202 204 -212 10 -4 19 -10 19 -14 0 -14 182
-100 245 -117 76 -20 80 -21 146 -30 64 -8 271 -9 314 -1 17 3 52 9 78 12 51
6 73 10 199 44 70 19 196 65 290 105 21 9 41 16 44 15 4 0 10 3 13 8 3 4 42
26 86 48 75 38 177 95 201 112 5 4 19 13 30 20 89 55 144 91 174 115 38 31 50
35 50 15 0 -36 98 -237 149 -307 62 -85 170 -172 221 -179 14 -1 30 -6 35 -10
17 -12 186 -2 260 16 11 2 40 9 65 15 58 12 60 13 93 26 16 7 32 12 38 12 9 0
209 73 244 89 260 122 266 125 278 123 4 -1 7 1 7 6 0 4 15 13 33 21 17 8 34
17 37 20 8 9 172 93 174 89 2 -2 17 -33 34 -71 108 -234 260 -359 427 -351 41
2 143 14 165 19 12 3 86 18 95 20 6 1 13 3 18 5 4 1 10 3 15 4 4 1 41 12 82
26 41 13 78 23 83 22 4 -1 7 3 7 10 0 6 3 9 6 5 4 -3 19 0 35 9 16 8 30 14 31
14 3 -1 70 25 103 40 83 37 190 87 243 112 35 17 64 29 66 27 2 -2 15 -22 28
-44 47 -74 180 -195 215 -195 7 0 13 -4 13 -8 0 -7 77 -39 105 -44 6 -1 30 -7
54 -15 73 -22 241 -11 331 21 41 15 83 28 93 31 9 2 31 13 47 25 17 12 30 18
30 15 0 -3 13 3 29 14 16 12 31 21 34 21 10 0 161 104 187 128 24 22 46 30 36
13 -4 -5 -18 -54 -32 -108 -32 -123 -32 -120 -43 -168 -10 -40 -31 -63 -142
-155 -144 -120 -618 -594 -714 -714 -16 -21 -36 -44 -42 -51 -7 -8 -13 -16
-13 -19 0 -3 -7 -14 -16 -23 -25 -29 -120 -161 -166 -232 -24 -36 -46 -70 -51
-76 -58 -74 -192 -314 -227 -407 -43 -113 -62 -209 -65 -333 -1 -65 1 -131 5
-145 4 -14 14 -45 21 -70 46 -158 188 -294 359 -340 155 -43 355 -50 492 -18
97 22 225 71 273 103 20 14 38 25 41 25 21 0 178 141 241 217 10 12 26 31 35
42 16 18 55 75 83 120 6 9 22 34 36 56 67 102 201 437 223 555 2 14 5 25 6 25
1 0 3 7 5 15 1 8 8 33 13 55 6 22 14 54 16 70 3 17 8 39 10 50 15 66 99 469
107 515 6 30 20 91 30 135 11 44 22 89 24 99 10 42 39 122 54 146 26 43 77 85
188 155 59 37 111 73 115 79 4 6 8 8 8 4 0 -5 32 15 70 42 39 28 75 50 80 50
6 0 10 3 10 8 0 4 17 18 38 32 20 14 39 27 42 30 3 3 39 30 80 60 41 30 81 60
88 67 7 7 16 13 20 13 4 0 25 16 47 36 22 20 56 48 75 63 78 59 280 255 280
271 0 5 7 10 15 10 8 0 15 6 15 14 0 8 4 16 8 18 13 5 72 90 68 97 -4 6 -10
56 -22 166 -3 28 -7 61 -10 75 -3 14 -7 45 -10 70 -3 25 -7 59 -10 75 -2 17
-7 50 -9 75 -8 77 -16 134 -19 137 -5 5 -43 -39 -186 -218 -19 -24 -52 -61
-72 -81 -20 -21 -35 -38 -32 -38 20 0 -373 -390 -476 -473 -112 -90 -316 -225
-325 -215 -1 2 17 80 40 173 24 94 43 172 43 175 -1 3 1 12 5 20 3 8 8 26 11
40 3 14 6 30 7 35 1 6 8 30 16 54 7 24 10 47 8 51 -3 5 -1 11 5 15 6 4 8 11 5
16 -4 5 -1 9 5 9 6 0 9 4 6 8 -3 5 1 29 9 54 7 26 16 59 19 75 2 15 25 107 51
203 25 96 47 182 49 190 2 8 16 60 31 115 15 55 28 108 30 117 2 9 14 52 26
95 12 43 23 87 25 98 1 11 3 20 4 20 1 0 3 7 5 15 1 8 10 40 19 71 9 31 18 65
21 75 2 11 18 73 35 139 46 172 50 188 54 206 2 8 16 60 30 115 52 197 53 216
8 264 -15 16 -81 50 -97 50 -3 0 -8 0 -12 1 -116 15 -298 -43 -413 -131 -107
-82 -188 -206 -216 -332 -1 -5 -2 -9 -4 -10 -1 -2 -3 -10 -5 -18 -1 -8 -17
-62 -34 -120 -18 -58 -46 -150 -62 -205 -17 -55 -33 -107 -36 -115 -3 -8 -7
-21 -9 -28 -1 -7 -10 -38 -20 -70 -9 -31 -26 -86 -36 -122 -11 -36 -23 -76
-28 -90 -12 -36 -100 -334 -105 -355 -2 -9 -6 -22 -22 -62 -3 -10 -7 -20 -8
-23 -5 -13 -21 -50 -44 -100 -14 -30 -28 -62 -31 -70 -3 -8 -17 -33 -30 -55
-14 -22 -25 -42 -24 -45 0 -3 -3 -9 -8 -15 -4 -5 -28 -37 -52 -71 -38 -51
-101 -115 -158 -160 -24 -19 -89 -37 -134 -36 -128 3 -188 111 -179 326 4 106
6 128 18 186 10 46 55 224 82 320 15 52 28 102 30 110 3 8 32 112 65 230 34
118 76 271 95 340 46 168 87 291 130 389 62 141 70 247 22 302 -32 38 -98 68
-157 72 -46 4 -71 1 -168 -19 -46 -9 -165 -79 -211 -123 -54 -52 -92 -106
-147 -206 -51 -95 -148 -291 -168 -340 -26 -66 -39 -100 -41 -107 -2 -5 -3 -9
-5 -10 -1 -2 -3 -10 -5 -18 -2 -8 -19 -70 -39 -138 -20 -67 -38 -133 -40 -145
-2 -12 -23 -94 -46 -182 -22 -88 -43 -171 -46 -183 -2 -13 -12 -49 -20 -80 -8
-32 -17 -68 -19 -82 -5 -32 -13 -67 -19 -88 -3 -9 -7 -37 -11 -62 -3 -25 -7
-54 -8 -65 -2 -11 -13 -24 -25 -30 -12 -5 -22 -13 -22 -17 0 -5 -7 -8 -15 -8
-8 0 -15 -4 -15 -10 0 -5 -4 -10 -9 -10 -5 0 -51 -24 -102 -53 -217 -122 -354
-176 -453 -179 -72 -2 -131 155 -129 342 1 55 7 115 13 115 1 0 3 8 5 18 7 38
69 215 95 273 25 55 121 219 204 349 18 28 57 88 87 135 30 47 78 120 107 163
28 43 52 80 52 82 0 4 187 288 199 302 6 7 11 15 11 18 0 4 15 27 32 53 18 26
40 59 48 73 8 14 40 65 70 112 30 48 60 95 65 105 18 32 58 97 90 147 17 28
35 57 38 65 4 8 16 29 26 45 22 34 84 142 94 165 4 8 17 31 29 50 11 19 50 91
85 160 36 69 70 131 76 139 7 8 11 16 10 17 -1 2 18 48 43 101 45 97 130 304
136 333 2 8 5 17 8 20 8 6 32 89 28 93 -2 2 2 10 8 18 14 17 82 262 88 319 1
9 5 21 10 28 4 6 5 12 3 12 -3 0 -1 17 4 38 16 69 23 166 22 312 0 138 -2 149
-32 225 -61 157 -166 227 -346 229 -38 1 -83 -2 -100 -6 -16 -5 -43 -11 -59
-14 -15 -2 -44 -11 -62 -19 -19 -8 -34 -12 -34 -10 0 10 -161 -82 -235 -134
-74 -52 -345 -308 -345 -326 0 -4 -6 -13 -14 -19 -60 -49 -426 -586 -426 -626
0 -5 -4 -10 -10 -10 -5 0 -10 -6 -10 -14 0 -7 -7 -19 -15 -26 -9 -7 -13 -15
-11 -18 3 -3 -3 -17 -12 -31 -10 -14 -29 -48 -43 -76 -13 -27 -27 -51 -31 -53
-5 -2 -8 -10 -8 -18 0 -8 -11 -31 -24 -52 -12 -20 -24 -40 -25 -44 -3 -16 -15
-45 -41 -108 -51 -119 -108 -264 -155 -395 -26 -71 -55 -152 -66 -180 -83
-226 -130 -372 -154 -470 -5 -25 -19 -76 -41 -157 -13 -48 -26 -97 -28 -110
-3 -13 -5 -23 -6 -23 -1 0 -3 -7 -5 -15 -1 -8 -8 -35 -15 -60 -7 -25 -14 -53
-16 -64 -2 -10 -12 -55 -24 -100 -11 -44 -22 -92 -24 -106 -3 -14 -5 -25 -6
-25 -1 0 -3 -9 -4 -20 -2 -11 -6 -33 -10 -50 -3 -16 -8 -43 -11 -60 -2 -16 -7
-41 -10 -55 -3 -14 -7 -43 -10 -65 -3 -22 -7 -56 -10 -75 -3 -19 -8 -66 -10
-104 -3 -37 -8 -72 -10 -76 -3 -5 -1 -11 5 -15 6 -4 7 -12 3 -18 -9 -14 -13
-337 -4 -352 9 -18 8 -66 -3 -79 -11 -12 -172 -117 -231 -150 -16 -9 -46 -26
-65 -38 -42 -25 -278 -146 -288 -148 -4 0 -36 -10 -72 -20 -102 -30 -135 -31
-158 -6 -28 30 -48 73 -62 136 -7 30 -15 66 -19 80 -6 24 -5 168 1 200 2 8 7
21 11 28 5 6 6 12 3 12 -3 0 4 26 15 58 11 31 22 66 25 78 6 33 62 164 91 214
46 80 185 303 235 377 26 40 48 77 48 83 0 5 5 10 10 10 6 0 10 6 10 13 0 7 9
23 20 35 11 12 20 23 20 26 0 2 28 47 61 98 34 51 74 113 90 138 16 25 32 50
36 55 13 17 215 333 288 450 37 61 75 121 84 135 8 14 21 34 27 45 6 11 34 59
62 107 29 48 52 91 52 97 0 6 4 11 9 11 5 0 13 10 17 23 4 12 10 24 13 27 4 3
18 28 32 55 14 28 39 75 56 105 40 73 94 179 91 182 -1 2 11 22 25 46 15 23
25 42 22 42 -2 0 4 16 15 35 11 20 20 42 20 50 0 8 5 15 10 15 6 0 10 4 10 9
0 5 5 22 12 38 6 15 12 33 13 38 2 6 12 30 23 55 26 57 89 224 92 245 1 3 12
36 25 73 13 38 26 80 29 93 3 13 13 51 21 84 15 58 31 137 40 200 3 17 8 46
11 65 11 63 12 317 1 362 -14 60 -49 149 -67 172 -60 75 -127 117 -210 131
-44 8 -147 14 -152 9z m-203 -705 c-2 -3 -6 -43 -9 -90 -3 -46 -12 -108 -20
-137 -8 -29 -15 -56 -15 -60 -4 -22 -25 -96 -47 -165 -14 -43 -27 -83 -28 -90
-1 -7 -8 -23 -16 -37 -7 -14 -12 -25 -11 -25 3 0 -52 -143 -92 -235 -5 -14
-10 -28 -9 -32 1 -5 -3 -8 -8 -8 -5 0 -9 -3 -8 -7 4 -20 -235 -521 -254 -534
-5 -3 -10 -12 -11 -20 -2 -8 -13 -32 -25 -52 -12 -21 -22 -40 -22 -41 0 -2
-25 -48 -56 -102 -31 -55 -70 -124 -87 -154 -80 -146 -336 -562 -360 -585 -7
-7 -8 -7 -4 0 3 6 8 28 11 50 8 46 14 80 21 115 3 14 8 39 11 55 2 17 9 45 14
64 5 19 7 37 5 39 -2 3 0 12 5 22 5 9 12 32 15 51 6 33 74 283 115 424 11 39
22 77 24 85 17 68 31 114 53 170 13 36 33 88 43 115 11 28 25 64 31 80 7 17
12 33 11 38 -1 4 3 7 9 7 5 0 7 4 4 10 -3 5 1 20 9 32 7 13 17 34 21 48 7 25
19 53 49 122 9 20 16 38 16 41 0 2 8 22 17 43 9 22 17 41 18 44 0 3 11 27 23
54 12 27 22 51 22 53 0 25 160 324 222 417 81 118 195 231 248 242 14 3 30 7
35 9 10 2 36 -45 30 -56z m1604 -41 c-1 -51 -9 -120 -17 -153 -7 -33 -16 -71
-18 -85 -6 -30 -33 -129 -41 -150 -3 -8 -7 -19 -9 -25 -1 -5 -12 -37 -24 -70
-11 -33 -22 -64 -24 -70 -3 -11 -6 -18 -53 -135 -19 -47 -40 -98 -47 -115 -8
-16 -24 -52 -36 -80 -97 -220 -294 -609 -396 -782 -24 -41 -44 -79 -44 -84 0
-5 -4 -9 -9 -9 -5 0 -12 -11 -15 -24 -3 -14 -12 -31 -19 -38 -7 -7 -18 -24
-25 -38 -24 -44 -47 -84 -85 -143 -20 -31 -37 -59 -37 -61 0 -4 -159 -257
-167 -266 -4 -5 6 78 14 115 2 11 6 34 9 50 5 32 24 121 48 225 8 36 26 108
41 160 15 52 28 102 30 110 2 8 13 45 24 83 11 37 17 67 13 67 -4 0 -2 4 3 8
6 4 20 45 33 92 26 97 26 98 37 125 4 11 21 56 37 100 215 574 351 869 489
1061 108 150 192 223 257 224 l34 0 -3 -92z m-4221 -2347 c50 -26 84 -109 85
-204 1 -82 -8 -120 -41 -176 -55 -93 -186 -239 -277 -306 -22 -17 -42 -32 -45
-35 -16 -16 -240 -133 -240 -125 0 2 -19 -3 -42 -11 -24 -8 -67 -17 -96 -21
l-52 -5 5 48 c14 139 33 201 104 356 32 71 59 133 62 146 1 4 13 24 25 44 13
21 24 41 24 45 0 5 12 22 26 38 15 17 33 40 42 53 32 48 163 135 225 148 107
23 159 25 195 5z m4966 -3008 c-22 -93 -27 -116 -28 -143 -1 -14 -3 -27 -6
-30 -5 -4 -14 -44 -45 -195 -13 -58 -59 -195 -67 -195 -5 0 -7 -4 -4 -9 4 -5
0 -22 -8 -38 -25 -50 -96 -228 -96 -240 0 -7 -4 -13 -10 -13 -5 0 -10 -5 -10
-11 0 -17 -59 -138 -98 -199 -44 -70 -124 -146 -182 -172 -33 -16 -66 -21
-128 -22 -81 -1 -85 0 -109 28 -55 64 -14 189 181 551 11 22 23 42 26 45 12
12 70 112 70 121 0 5 5 9 10 9 6 0 10 6 10 14 0 8 3 16 8 18 4 2 27 32 51 67
24 36 48 70 53 75 5 6 19 25 31 42 65 91 213 246 298 314 24 19 46 38 47 42 2
5 7 6 12 3 4 -2 1 -31 -6 -62z"/>
<path d="M3498 10424 c-2 -1 -55 -5 -118 -8 -63 -3 -128 -8 -145 -10 -16 -2
-57 -7 -90 -10 -57 -6 -77 -9 -135 -22 -14 -3 -36 -7 -50 -10 -76 -15 -215
-56 -255 -74 -11 -5 -42 -17 -70 -26 -121 -39 -410 -196 -480 -261 -11 -10
-30 -26 -43 -34 -74 -52 -209 -198 -279 -304 -43 -66 -117 -205 -108 -205 3 0
-3 -17 -14 -37 -19 -40 -50 -150 -59 -218 -11 -79 -7 -280 7 -345 40 -181 145
-357 312 -520 107 -105 102 -100 195 -170 61 -47 230 -160 237 -160 2 0 44
-24 93 -53 49 -30 109 -65 134 -79 25 -14 63 -35 85 -48 22 -12 87 -47 145
-78 58 -30 110 -58 115 -62 6 -4 51 -29 100 -55 76 -40 159 -86 238 -130 172
-98 389 -271 478 -382 44 -54 97 -143 113 -188 10 -27 20 -57 23 -65 36 -97
16 -306 -43 -437 -14 -32 -26 -60 -27 -63 -2 -6 -26 -36 -44 -55 -7 -8 -13
-17 -13 -22 0 -26 -213 -217 -281 -254 -13 -6 -26 -15 -29 -19 -3 -3 -29 -19
-59 -34 -30 -15 -62 -32 -70 -37 -82 -44 -329 -124 -441 -143 -19 -3 -46 -8
-60 -11 -113 -22 -480 -41 -480 -25 0 3 -17 5 -38 6 -88 1 -307 45 -326 64 -6
6 -18 10 -29 10 -20 0 -162 69 -211 102 -57 39 -164 155 -198 214 -18 33 -33
61 -34 64 0 3 -3 12 -6 20 -38 99 -41 277 -9 414 6 22 9 42 9 45 -1 3 2 13 5
21 24 57 78 303 76 345 -4 104 -63 158 -184 169 -58 5 -196 -40 -279 -91 -59
-36 -151 -122 -191 -178 -11 -16 -24 -33 -30 -39 -16 -18 -86 -157 -100 -201
-69 -211 -65 -486 11 -713 18 -53 71 -161 92 -184 8 -10 12 -18 8 -18 -11 0
96 -135 153 -195 49 -51 120 -112 150 -129 9 -5 21 -14 27 -20 18 -17 138 -90
151 -92 7 -1 26 -12 43 -24 16 -12 30 -18 30 -14 0 3 6 2 13 -4 13 -11 183
-81 212 -87 6 -2 42 -12 80 -23 83 -24 158 -41 202 -47 18 -2 36 -6 41 -9 5
-3 33 -8 63 -11 30 -3 65 -7 79 -10 30 -6 243 -18 325 -18 61 0 256 11 310 18
17 2 53 6 80 10 28 3 73 10 100 15 28 5 66 12 85 15 19 3 50 10 68 16 18 6 43
12 55 14 27 4 136 33 157 42 8 3 17 7 20 8 23 6 58 18 75 25 11 4 47 18 80 30
64 24 287 130 295 140 3 4 12 10 20 13 51 23 210 134 270 188 111 99 218 213
263 279 70 102 95 145 132 220 57 114 92 219 121 365 22 111 22 347 0 456 -17
79 -91 270 -108 277 -4 2 -8 8 -8 14 0 43 -227 311 -338 398 -18 14 -44 35
-59 48 -39 33 -173 122 -183 122 -5 0 -10 3 -12 8 -3 6 -163 105 -223 137 -11
6 -49 27 -85 47 -121 66 -197 106 -351 187 -85 44 -174 91 -199 104 -25 14
-72 39 -105 57 -59 32 -226 138 -235 150 -3 4 -12 11 -21 16 -44 24 -169 142
-224 209 -55 69 -73 100 -110 190 -23 54 -27 212 -8 284 29 114 137 257 258
343 43 30 149 90 165 93 3 0 14 6 25 12 67 37 268 88 398 100 135 13 437 6
522 -12 11 -3 34 -6 50 -9 57 -9 100 -18 125 -27 14 -4 36 -10 50 -13 38 -6
151 -60 217 -102 86 -55 174 -159 188 -221 2 -10 8 -32 13 -49 8 -25 9 -184 2
-191 -3 -3 -3 -4 -14 -53 -14 -59 -76 -179 -164 -314 -105 -160 -148 -246
-171 -339 -33 -128 -10 -205 72 -242 95 -41 223 -11 385 92 57 36 188 166 229
227 16 23 34 47 41 55 18 19 72 104 111 176 144 262 183 547 112 805 -16 56
-97 222 -122 249 -11 11 -19 25 -19 30 0 6 -6 14 -13 18 -7 4 -20 19 -29 33
-29 45 -157 168 -209 202 -14 9 -33 23 -41 30 -60 55 -312 176 -448 215 -83
23 -220 53 -265 58 -22 2 -63 7 -90 10 -52 6 -253 14 -257 9z"/>
</g>
</svg>
