<?xml version="1.0" standalone="no"?>
<!DOCTYPE svg PUBLIC "-//W3C//DTD SVG 20010904//EN"
 "http://www.w3.org/TR/2001/REC-SVG-20010904/DTD/svg10.dtd">
<svg version="1.0" xmlns="http://www.w3.org/2000/svg"
 width="700.000000pt" height="700.000000pt" viewBox="0 0 700.000000 700.000000"
 preserveAspectRatio="xMidYMid meet">
<metadata>
Created by potrace 1.11, written by Peter Selinger 2001-2013
</metadata>
<g transform="translate(0.000000,700.000000) scale(0.100000,-0.100000)"
fill="#000000" stroke="none">
<path d="M0 3500 l0 -3500 3500 0 3500 0 0 3500 0 3500 -3500 0 -3500 0 0
-3500z m3675 3440 c319 -18 594 -68 885 -162 1050 -339 1879 -1168 2218 -2218
474 -1469 -84 -3070 -1368 -3927 -1154 -770 -2666 -770 -3820 0 -455 303 -821
699 -1095 1182 -585 1030 -585 2340 0 3370 318 561 759 1002 1320 1320 360
205 770 343 1195 405 121 18 220 26 460 38 14 1 106 -3 205 -8z"/>
<path d="M2196 5825 c-77 -29 -129 -78 -174 -160 l-27 -50 -3 -1360 c-3 -1441
-2 -1487 43 -1674 123 -507 489 -925 973 -1112 416 -160 881 -135 1285 69 149
76 260 155 381 272 233 224 375 478 452 806 27 111 28 133 28 334 0 185 -3
229 -22 315 -61 276 -177 512 -354 723 -235 279 -624 488 -1003 537 l-51 6
-24 112 c-14 62 -29 112 -34 112 -17 0 -804 -740 -792 -746 11 -7 967 -301
1018 -314 l26 -7 -19 87 c-11 48 -18 89 -16 91 6 7 108 -38 172 -75 306 -176
488 -490 486 -837 -1 -166 -29 -289 -99 -429 -51 -103 -107 -181 -188 -262
-307 -307 -799 -366 -1173 -140 -220 133 -370 335 -444 596 -21 76 -21 85 -27
1481 l-5 1405 -23 50 c-29 64 -83 120 -147 153 -62 32 -178 40 -239 17z"/>
</g>
</svg>
