<?xml version="1.0" encoding="utf-8"?>
<!-- Generator: Adobe Illustrator 20.1.0, SVG Export Plug-In . SVG Version: 6.00 Build 0)  -->
<svg version="1.1" id="Layer_1" xmlns="http://www.w3.org/2000/svg" xmlns:xlink="http://www.w3.org/1999/xlink" x="0px" y="0px"
	 viewBox="0 0 172.1 103.67" style="enable-background:new 0 0 172.1 103.67;" xml:space="preserve">
<style type="text/css">
	.st0{fill:#00E5FF;}
</style>
<g>
	<path class="st0" d="M29.54,23.18c-0.13,1.54,0.19,2.92,0.99,4.13c0.79,1.21,1.89,2.34,3.28,3.38c1.39,1.04,2.99,2.02,4.79,2.96
		s3.64,1.9,5.53,2.89c1.89,0.99,3.72,2.05,5.5,3.18c1.78,1.13,3.35,2.41,4.71,3.83c1.36,1.42,2.41,3.03,3.15,4.83
		c0.74,1.8,1.01,3.85,0.81,6.16c-0.18,2.1-0.69,4.03-1.52,5.79c-0.83,1.76-1.9,3.34-3.2,4.74c-1.3,1.4-2.8,2.64-4.51,3.71
		c-1.71,1.07-3.52,1.96-5.45,2.66c-1.93,0.7-3.94,1.23-6.02,1.59c-2.09,0.36-4.17,0.54-6.25,0.54c-2.92,0-5.73-0.36-8.42-1.07
		c-2.69-0.71-5.05-1.79-7.07-3.22c-2.02-1.44-3.59-3.23-4.69-5.39c-1.11-2.16-1.53-4.69-1.28-7.58c0.13-1.49,0.48-2.81,1.06-3.94
		s1.26-2.08,2.03-2.84c0.78-0.76,1.61-1.33,2.48-1.72c0.87-0.39,1.67-0.58,2.4-0.58c0.75,0,1.35,0.2,1.82,0.61
		c0.47,0.41,0.66,1.05,0.59,1.91c-0.04,0.4-0.12,0.82-0.25,1.26c-0.13,0.44-0.27,0.93-0.41,1.45c-0.15,0.53-0.29,1.1-0.44,1.73
		s-0.25,1.32-0.32,2.07c-0.14,1.63,0.11,3.05,0.75,4.24c0.64,1.19,1.55,2.17,2.71,2.94s2.54,1.34,4.11,1.72
		c1.57,0.37,3.22,0.56,4.95,0.56c2.03,0,4.08-0.24,6.16-0.73s3.96-1.21,5.65-2.17c1.69-0.96,3.1-2.13,4.23-3.52
		c1.13-1.39,1.77-2.98,1.92-4.78c0.15-1.66-0.17-3.14-0.96-4.44c-0.79-1.31-1.87-2.51-3.26-3.62c-1.39-1.11-2.98-2.15-4.79-3.13
		c-1.81-0.98-3.65-1.97-5.52-2.98c-1.87-1-3.7-2.06-5.49-3.17c-1.79-1.11-3.37-2.33-4.73-3.66c-1.36-1.33-2.42-2.82-3.17-4.46
		c-0.75-1.65-1.04-3.52-0.85-5.62c0.17-1.96,0.81-3.9,1.92-5.81c1.11-1.91,2.68-3.61,4.71-5.12c2.03-1.51,4.51-2.73,7.44-3.67
		c2.93-0.94,6.3-1.4,10.12-1.4c2.43,0,4.77,0.36,7.03,1.09c2.26,0.72,4.24,1.75,5.95,3.08c1.71,1.33,3.03,2.92,3.98,4.76
		c0.95,1.84,1.32,3.89,1.13,6.13c-0.12,1.33-0.46,2.7-1.04,4.1c-0.58,1.4-1.43,2.86-2.57,4.38c-1.11,1.47-2.27,2.56-3.49,3.27
		c-1.22,0.71-2.29,1.07-3.23,1.07c-0.7,0-1.26-0.2-1.66-0.61c-0.41-0.41-0.58-1.02-0.5-1.84c0.05-0.61,0.26-1.32,0.61-2.15
		c0.36-0.83,0.92-1.78,1.7-2.85c0.73-1.03,1.28-1.99,1.67-2.88s0.61-1.73,0.68-2.5c0.1-1.19-0.13-2.23-0.69-3.13
		c-0.56-0.9-1.39-1.65-2.47-2.26c-1.08-0.61-2.41-1.06-3.97-1.36c-1.57-0.3-3.3-0.45-5.19-0.45c-2.1,0-3.95,0.24-5.54,0.72
		s-2.94,1.1-4.05,1.86c-1.11,0.76-1.95,1.6-2.53,2.54C29.95,21.35,29.62,22.27,29.54,23.18z"/>
	<path class="st0" d="M71.73,69.1c-2.18,0-4.05-0.4-5.62-1.21c-1.56-0.81-2.83-1.9-3.8-3.26c-0.97-1.37-1.65-2.95-2.04-4.74
		c-0.39-1.79-0.5-3.68-0.32-5.65c0.11-1.29,0.49-2.83,1.13-4.61c0.64-1.79,1.29-3.37,1.93-4.75c0.64-1.38,1.41-2.7,2.31-3.96
		c0.9-1.26,1.92-2.36,3.06-3.32c1.14-0.96,2.39-1.72,3.75-2.28c1.36-0.56,2.84-0.85,4.45-0.85c1.31,0,2.51,0.21,3.59,0.63
		s2.01,1.01,2.77,1.77c0.76,0.76,1.33,1.67,1.71,2.75c0.37,1.07,0.5,2.27,0.39,3.6c-0.12,1.42-0.74,3-1.84,4.76
		c-1.1,1.76-2.34,3.27-3.71,4.52c-1.37,1.26-2.97,2.37-4.8,3.36c-1.83,0.98-3.78,1.75-5.87,2.29c0.3,0.62,0.6,1.13,0.9,1.54
		c0.3,0.41,0.62,0.73,0.95,0.96c0.33,0.23,0.69,0.39,1.06,0.48c0.38,0.09,0.79,0.14,1.24,0.14c1.4,0,2.9-0.27,4.5-0.82
		c1.6-0.55,3.17-1.23,4.71-2.05c1.54-0.82,3.01-1.72,4.4-2.69c1.39-0.97,2.58-1.89,3.57-2.76l4.12,4.59
		c-2.25,2.19-4.6,4.12-7.06,5.81c-1.07,0.72-2.21,1.43-3.43,2.13c-1.22,0.7-2.49,1.32-3.8,1.86c-1.32,0.54-2.68,0.97-4.07,1.3
		C74.53,68.94,73.13,69.1,71.73,69.1z M68.51,52.42c0.84,0,1.78-0.21,2.82-0.63c1.03-0.42,2-0.96,2.92-1.63
		c0.91-0.66,1.83-1.55,2.75-2.67c0.92-1.12,1.41-2.04,1.47-2.77c0.09-1.03-0.03-1.87-0.36-2.53c-0.33-0.66-0.77-0.99-1.34-0.99
		c-1.01,0-1.89,0.18-2.63,0.55c-0.75,0.37-1.38,0.84-1.92,1.42c-0.53,0.58-0.98,1.24-1.33,1.99c-0.36,0.74-0.78,1.66-1.26,2.76
		c-0.48,1.1-0.78,2-0.89,2.71C68.63,51.31,68.55,51.91,68.51,52.42z"/>
	<path class="st0" d="M94.16,69.1c-1.26,0-2.38-0.55-3.36-1.64c-0.99-1.09-1.8-2.56-2.44-4.4s-1.08-3.97-1.33-6.4
		c-0.24-2.42-0.25-4.97-0.01-7.64c0.2-2.29,0.8-5.35,1.81-9.18c1.01-3.83,1.51-5.74,1.51-5.74c0,0,0.68-1.91,2.03-5.73
		c1.35-3.82,2.65-6.89,3.87-9.19c1.23-2.31,2.53-4.46,3.91-6.47c1.38-2.01,2.79-3.75,4.24-5.24c1.45-1.49,2.93-2.66,4.45-3.51
		c1.51-0.85,3.01-1.28,4.5-1.28c1.08,0,1.96,0.21,2.62,0.62c0.67,0.41,1.17,0.96,1.52,1.64s0.56,1.44,0.65,2.3
		c0.09,0.86,0.09,1.73,0.02,2.62c-0.19,2.21-0.65,4.46-1.37,6.74c-0.72,2.29-1.63,4.59-2.72,6.9c-1.09,2.31-2.32,4.63-3.69,6.96
		c-1.37,2.32-2.78,4.63-4.25,6.92c-1.46,2.29-2.93,4.54-4.4,6.76c-1.47,2.22-2.83,4.39-4.1,6.51c-0.14,0.24-0.29,0.54-0.45,0.92
		c-0.16,0.38-0.32,0.78-0.48,1.22c-0.16,0.44-0.31,0.9-0.47,1.4c-0.16,0.5-0.3,0.98-0.41,1.45l-0.04,0.49
		c-0.05,0.61-0.04,1.21,0.04,1.78c0.08,0.58,0.19,1.1,0.34,1.55c0.15,0.46,0.31,0.83,0.5,1.1c0.19,0.27,0.38,0.41,0.56,0.41
		c0.45,0,0.98-0.09,1.58-0.28c0.6-0.19,1.25-0.44,1.93-0.76c0.69-0.32,1.39-0.68,2.12-1.09s1.44-0.83,2.12-1.25
		c1.59-0.99,3.27-2.13,5.03-3.43l2.45,7.38c-2.26,1.42-4.49,2.69-6.68,3.8c-0.95,0.47-1.94,0.93-2.95,1.38
		c-1.01,0.46-2.03,0.86-3.05,1.22c-1.02,0.36-2,0.64-2.96,0.85C95.86,68.99,94.98,69.1,94.16,69.1z M96.62,41.33
		c1.22-1.88,2.52-4,3.91-6.36c1.39-2.35,2.72-4.78,3.99-7.28c1.27-2.5,2.4-4.99,3.39-7.47c0.99-2.48,1.68-4.8,2.08-6.94
		c0.06-0.68,0.09-1.27,0.1-1.75c0.01-0.48-0.08-0.72-0.25-0.72c-0.64,0-1.37,0.44-2.19,1.33c-0.82,0.89-1.67,2.09-2.54,3.6
		c-0.87,1.51-1.97,3.98-3.3,7.39c-1.33,3.41-1.99,5.12-1.99,5.12c0,0-0.45,1.58-1.36,4.75S96.95,38.94,96.62,41.33z"/>
	<path class="st0" d="M114.29,69.1c-1.26,0-2.38-0.55-3.36-1.64c-0.99-1.09-1.8-2.56-2.44-4.4s-1.08-3.97-1.33-6.4
		c-0.24-2.42-0.25-4.97-0.01-7.64c0.2-2.29,0.8-5.35,1.81-9.18c1.01-3.83,1.51-5.74,1.51-5.74c0,0,0.68-1.91,2.03-5.73
		c1.35-3.82,2.65-6.89,3.87-9.19c1.23-2.31,2.53-4.46,3.91-6.47c1.38-2.01,2.79-3.75,4.24-5.24c1.45-1.49,2.93-2.66,4.45-3.51
		c1.51-0.85,3.01-1.28,4.5-1.28c1.08,0,1.96,0.21,2.62,0.62c0.67,0.41,1.17,0.96,1.52,1.64s0.56,1.44,0.65,2.3
		c0.09,0.86,0.09,1.73,0.02,2.62c-0.19,2.21-0.65,4.46-1.37,6.74c-0.72,2.29-1.63,4.59-2.72,6.9c-1.09,2.31-2.32,4.63-3.69,6.96
		c-1.37,2.32-2.78,4.63-4.25,6.92c-1.46,2.29-2.93,4.54-4.4,6.76c-1.47,2.22-2.83,4.39-4.1,6.51c-0.14,0.24-0.29,0.54-0.45,0.92
		c-0.16,0.38-0.32,0.78-0.48,1.22c-0.16,0.44-0.31,0.9-0.47,1.4c-0.16,0.5-0.3,0.98-0.41,1.45l-0.04,0.49
		c-0.05,0.61-0.04,1.21,0.04,1.78c0.08,0.58,0.19,1.1,0.34,1.55c0.15,0.46,0.31,0.83,0.5,1.1c0.19,0.27,0.38,0.41,0.56,0.41
		c0.45,0,0.98-0.09,1.58-0.28c0.6-0.19,1.25-0.44,1.93-0.76c0.69-0.32,1.39-0.68,2.12-1.09s1.44-0.83,2.12-1.25
		c1.59-0.99,3.27-2.13,5.03-3.43l2.45,7.38c-2.26,1.42-4.49,2.69-6.68,3.8c-0.95,0.47-1.94,0.93-2.95,1.38
		c-1.01,0.46-2.03,0.86-3.05,1.22c-1.02,0.36-2,0.64-2.96,0.85C116,68.99,115.11,69.1,114.29,69.1z M116.76,41.33
		c1.22-1.88,2.52-4,3.91-6.36c1.39-2.35,2.72-4.78,3.99-7.28c1.27-2.5,2.4-4.99,3.39-7.47c0.99-2.48,1.68-4.8,2.08-6.94
		c0.06-0.68,0.09-1.27,0.1-1.75c0.01-0.48-0.08-0.72-0.25-0.72c-0.64,0-1.37,0.44-2.19,1.33c-0.82,0.89-1.67,2.09-2.54,3.6
		c-0.87,1.51-1.97,3.98-3.3,7.39c-1.33,3.41-1.99,5.12-1.99,5.12c0,0-0.45,1.58-1.36,4.75S117.08,38.94,116.76,41.33z"/>
	<path class="st0" d="M140.29,69.69l1.14-4.23c-1.36,1.11-2.75,2-4.18,2.69c-1.42,0.68-2.78,1.02-4.06,1.02
		c-1.12,0-2.19-0.23-3.21-0.68c-1.02-0.46-1.91-1.11-2.65-1.96c-0.74-0.85-1.31-1.89-1.69-3.12c-0.38-1.23-0.51-2.61-0.37-4.15
		c0.18-2.03,0.48-3.89,0.91-5.59c0.43-1.69,0.96-3.78,1.58-6.27c0.63-2.49,1.28-4.45,1.97-5.88c0.69-1.44,1.46-2.89,2.31-4.36
		c0.63-1.05,1.47-1.85,2.52-2.4c1.05-0.55,2.06-0.82,3.01-0.82c0.82,0,1.5,0.2,2.05,0.61c0.55,0.41,0.78,1.05,0.71,1.91
		c-0.02,0.26-0.08,0.54-0.16,0.84c-0.08,0.3-0.21,0.63-0.38,0.98c-0.51,1.07-0.97,2.35-1.38,3.83c-0.41,1.48-0.96,3.45-1.65,5.92
		c-0.69,2.47-1.23,4.42-1.64,5.87c-0.4,1.45-0.66,2.73-0.75,3.87c-0.05,0.59-0.06,1.16-0.03,1.72c0.03,0.55,0.14,1.05,0.31,1.49
		c0.17,0.44,0.42,0.79,0.75,1.06c0.33,0.27,0.76,0.41,1.29,0.41c0.86,0,1.68-0.38,2.45-1.13c0.77-0.75,1.45-1.66,2.06-2.72
		c0.61-1.06,1.12-2.15,1.53-3.28c0.41-1.13,0.7-2.07,0.86-2.82l3.95-13.1c0.23-0.77,0.62-1.47,1.17-2.1
		c0.52-0.61,1.12-1.13,1.79-1.56s1.35-0.75,2.05-0.96c0.7-0.21,1.35-0.31,1.96-0.31c0.72,0,1.32,0.16,1.78,0.47
		c0.46,0.32,0.67,0.81,0.61,1.49c-0.02,0.21-0.08,0.46-0.17,0.74c-0.17,0.62-0.38,1.46-0.66,2.5c-0.28,1.05-0.59,2.24-0.94,3.57
		c-0.35,1.34-0.84,3.21-1.47,5.62c-0.63,2.41-1.14,4.35-1.53,5.81c-0.89,3.47-1.82,7.19-2.79,11.17c0.74-0.4,1.55-0.89,2.42-1.47
		c0.87-0.58,1.85-1.37,2.94-2.34c1.09-0.98,2.32-2.21,3.69-3.69c1.37-1.48,2.92-3.33,4.65-5.55l1,7.79
		c-0.48,0.72-1.08,1.45-1.8,2.19c-0.77,0.79-1.58,1.55-2.44,2.3c-1.26,1.07-2.17,1.79-2.71,2.16c-0.17,0.12-1.08,0.79-2.73,2.01
		c-0.5,0.4-2.14,1.47-4.92,3.22c-0.68,0.42-1.18,1.18-1.51,2.29c-0.33,1.11-0.79,3.17-1.36,6.18c-0.21,0.86-0.35,1.52-0.42,1.99
		c-0.24,1.11-0.47,2.18-0.68,3.19c-0.22,1.01-0.54,2.16-0.98,3.46c-0.44,1.3-0.93,2.49-1.47,3.57c-0.54,1.09-1.21,2.17-2.03,3.24
		s-1.69,1.99-2.64,2.75c-0.94,0.76-2.05,1.37-3.32,1.84c-1.28,0.47-2.65,0.7-4.12,0.7c-1.19,0-2.28-0.13-3.27-0.4
		c-0.99-0.27-1.88-0.68-2.67-1.24c-0.79-0.56-1.41-1.32-1.86-2.29c-0.45-0.97-0.67-2.1-0.65-3.41c0.03-2.47,0.94-5.08,2.72-7.84
		c1-1.54,1.7-2.61,2.1-3.2c0.4-0.59,1.03-1.45,1.87-2.57c0.84-1.1,1.71-2.09,2.61-2.97c1.79-1.84,3.27-3.32,4.43-4.44
		C137.34,72.17,138.71,70.97,140.29,69.69z M139.68,78.13c-1.74,1.17-3.52,3.04-5.33,5.6c-1.82,2.57-3.31,5.18-4.48,7.84
		c-0.97,2.24-0.68,3.36,0.86,3.36c0.56,0,1.07-0.07,1.52-0.21c0.46-0.14,0.89-0.39,1.29-0.75c0.4-0.36,0.77-0.76,1.08-1.19
		c0.32-0.43,0.67-1.04,1.05-1.82s0.73-1.55,1.04-2.31c0.31-0.76,0.71-1.77,1.19-3.03c0.27-0.68,0.49-1.43,0.67-2.26
		c0.17-0.83,0.38-1.83,0.63-3C139.45,79.2,139.61,78.46,139.68,78.13z"/>
</g>
</svg>
